<svg width="189" height="102" viewBox="0 0 189 102" fill="none" xmlns="http://www.w3.org/2000/svg">
<path d="M81.6665 21.6667H84.9998C85.8839 21.6667 86.7317 22.0178 87.3568 22.643C87.982 23.2681 88.3332 24.1159 88.3332 25V48.3333C88.3332 49.2174 87.982 50.0652 87.3568 50.6903C86.7317 51.3155 85.8839 51.6667 84.9998 51.6667H64.9998C64.1158 51.6667 63.2679 51.3155 62.6428 50.6903C62.0177 50.0652 61.6665 49.2174 61.6665 48.3333V25C61.6665 24.1159 62.0177 23.2681 62.6428 22.643C63.2679 22.0178 64.1158 21.6667 64.9998 21.6667H68.3332" stroke="black" stroke-width="2" stroke-linecap="round" stroke-linejoin="round"/>
<path d="M80.0002 18.3333H70.0002C69.0797 18.3333 68.3335 19.0795 68.3335 20V23.3333C68.3335 24.2538 69.0797 25 70.0002 25H80.0002C80.9206 25 81.6668 24.2538 81.6668 23.3333V20C81.6668 19.0795 80.9206 18.3333 80.0002 18.3333Z" stroke="black" stroke-width="2" stroke-linecap="round" stroke-linejoin="round"/>
<path d="M31.416 75.192C30.152 75.192 28.928 75 27.744 74.616C26.576 74.216 25.656 73.704 24.984 73.08L25.872 71.208C26.512 71.784 27.328 72.256 28.32 72.624C29.328 72.976 30.36 73.152 31.416 73.152C32.808 73.152 33.848 72.92 34.536 72.456C35.224 71.976 35.568 71.344 35.568 70.56C35.568 69.984 35.376 69.52 34.992 69.168C34.624 68.8 34.16 68.52 33.6 68.328C33.056 68.136 32.28 67.92 31.272 67.68C30.008 67.376 28.984 67.072 28.2 66.768C27.432 66.464 26.768 66 26.208 65.376C25.664 64.736 25.392 63.88 25.392 62.808C25.392 61.912 25.624 61.104 26.088 60.384C26.568 59.664 27.288 59.088 28.248 58.656C29.208 58.224 30.4 58.008 31.824 58.008C32.816 58.008 33.792 58.136 34.752 58.392C35.712 58.648 36.536 59.016 37.224 59.496L36.432 61.416C35.728 60.968 34.976 60.632 34.176 60.408C33.376 60.168 32.592 60.048 31.824 60.048C30.464 60.048 29.44 60.296 28.752 60.792C28.08 61.288 27.744 61.928 27.744 62.712C27.744 63.288 27.936 63.76 28.32 64.128C28.704 64.48 29.176 64.76 29.736 64.968C30.312 65.16 31.088 65.368 32.064 65.592C33.328 65.896 34.344 66.2 35.112 66.504C35.88 66.808 36.536 67.272 37.08 67.896C37.64 68.52 37.92 69.36 37.92 70.416C37.92 71.296 37.68 72.104 37.2 72.84C36.72 73.56 35.992 74.136 35.016 74.568C34.04 74.984 32.84 75.192 31.416 75.192ZM56.5279 60.288H50.7679V58.2H64.6639V60.288H58.9039V75H56.5279V60.288ZM86.6274 75.192C84.9314 75.192 83.4034 74.824 82.0434 74.088C80.6834 73.336 79.6114 72.304 78.8274 70.992C78.0594 69.68 77.6754 68.216 77.6754 66.6C77.6754 64.984 78.0594 63.52 78.8274 62.208C79.6114 60.896 80.6834 59.872 82.0434 59.136C83.4034 58.384 84.9314 58.008 86.6274 58.008C88.3074 58.008 89.8274 58.384 91.1874 59.136C92.5474 59.872 93.6114 60.896 94.3794 62.208C95.1474 63.504 95.5314 64.968 95.5314 66.6C95.5314 68.232 95.1474 69.704 94.3794 71.016C93.6114 72.312 92.5474 73.336 91.1874 74.088C89.8274 74.824 88.3074 75.192 86.6274 75.192ZM86.6274 73.056C87.8594 73.056 88.9634 72.776 89.9394 72.216C90.9314 71.656 91.7074 70.888 92.2674 69.912C92.8434 68.92 93.1314 67.816 93.1314 66.6C93.1314 65.384 92.8434 64.288 92.2674 63.312C91.7074 62.32 90.9314 61.544 89.9394 60.984C88.9634 60.424 87.8594 60.144 86.6274 60.144C85.3954 60.144 84.2754 60.424 83.2674 60.984C82.2754 61.544 81.4914 62.32 80.9154 63.312C80.3554 64.288 80.0754 65.384 80.0754 66.6C80.0754 67.816 80.3554 68.92 80.9154 69.912C81.4914 70.888 82.2754 71.656 83.2674 72.216C84.2754 72.776 85.3954 73.056 86.6274 73.056ZM118.712 75.192C117.032 75.192 115.512 74.824 114.152 74.088C112.808 73.336 111.752 72.312 110.984 71.016C110.216 69.704 109.832 68.232 109.832 66.6C109.832 64.968 110.216 63.504 110.984 62.208C111.752 60.896 112.816 59.872 114.176 59.136C115.536 58.384 117.056 58.008 118.736 58.008C120.048 58.008 121.248 58.232 122.336 58.68C123.424 59.112 124.352 59.76 125.12 60.624L123.56 62.136C122.296 60.808 120.72 60.144 118.832 60.144C117.584 60.144 116.456 60.424 115.448 60.984C114.44 61.544 113.648 62.32 113.072 63.312C112.512 64.288 112.232 65.384 112.232 66.6C112.232 67.816 112.512 68.92 113.072 69.912C113.648 70.888 114.44 71.656 115.448 72.216C116.456 72.776 117.584 73.056 118.832 73.056C120.704 73.056 122.28 72.384 123.56 71.04L125.12 72.552C124.352 73.416 123.416 74.072 122.312 74.52C121.224 74.968 120.024 75.192 118.712 75.192ZM146.015 67.536L142.943 70.656V75H140.543V58.2H142.943V67.584L152.063 58.2H154.799L147.623 65.76L155.255 75H152.447L146.015 67.536Z" fill="black"/>
<path d="M74.52 29.2H76.92V46H74.52V29.2ZM108.398 29.2V46H106.43L96.3497 33.472V46H93.9497V29.2H95.9177L105.998 41.728V29.2H108.398Z" fill="black"/>
</svg>
