<svg width="45" height="45" viewBox="0 0 45 45" fill="none" xmlns="http://www.w3.org/2000/svg">
<circle cx="22.5" cy="22.5" r="22.5" fill="#F76A6A"/>
<path d="M14 17H16H32" stroke="#F9F9F9" stroke-width="2" stroke-linecap="round" stroke-linejoin="round"/>
<path d="M19 17V15C19 14.4696 19.2107 13.9609 19.5858 13.5858C19.9609 13.2107 20.4696 13 21 13H25C25.5304 13 26.0391 13.2107 26.4142 13.5858C26.7893 13.9609 27 14.4696 27 15V17M30 17V31C30 31.5304 29.7893 32.0391 29.4142 32.4142C29.0391 32.7893 28.5304 33 28 33H18C17.4696 33 16.9609 32.7893 16.5858 32.4142C16.2107 32.0391 16 31.5304 16 31V17H30Z" stroke="#F9F9F9" stroke-width="2" stroke-linecap="round" stroke-linejoin="round"/>
<path d="M21 22V28" stroke="#F9F9F9" stroke-width="2" stroke-linecap="round" stroke-linejoin="round"/>
<path d="M25 22V28" stroke="#F9F9F9" stroke-width="2" stroke-linecap="round" stroke-linejoin="round"/>
</svg>
