<svg width="45" height="45" viewBox="0 0 45 45" fill="none" xmlns="http://www.w3.org/2000/svg">
<circle cx="22.5" cy="22.5" r="22.5" fill="#5ADB67"/>
<path d="M22 15H15C14.4696 15 13.9609 15.2107 13.5858 15.5858C13.2107 15.9609 13 16.4696 13 17V31C13 31.5304 13.2107 32.0391 13.5858 32.4142C13.9609 32.7893 14.4696 33 15 33H29C29.5304 33 30.0391 32.7893 30.4142 32.4142C30.7893 32.0391 31 31.5304 31 31V24" stroke="#F9F9F9" stroke-width="2" stroke-linecap="round" stroke-linejoin="round"/>
<path d="M29.5 13.5C29.8978 13.1022 30.4374 12.8787 31 12.8787C31.5626 12.8787 32.1022 13.1022 32.5 13.5C32.8978 13.8978 33.1213 14.4374 33.1213 15C33.1213 15.5626 32.8978 16.1022 32.5 16.5L23 26L19 27L20 23L29.5 13.5Z" stroke="#F9F9F9" stroke-width="2" stroke-linecap="round" stroke-linejoin="round"/>
</svg>
