<svg width="25" height="25" viewBox="0 0 25 25" fill="none" xmlns="http://www.w3.org/2000/svg">
<g clip-path="url(#clip0)">
<path d="M12.5 15.75C14.1569 15.75 15.5 14.4069 15.5 12.75C15.5 11.0931 14.1569 9.75 12.5 9.75C10.8431 9.75 9.5 11.0931 9.5 12.75C9.5 14.4069 10.8431 15.75 12.5 15.75Z" stroke="#F9F9F9" stroke-width="2" stroke-linecap="round" stroke-linejoin="round"/>
<path d="M19.9 15.75C19.7669 16.0516 19.7272 16.3862 19.786 16.7106C19.8448 17.035 19.9995 17.3343 20.23 17.57L20.29 17.63C20.476 17.8157 20.6235 18.0363 20.7241 18.2791C20.8248 18.5219 20.8766 18.7822 20.8766 19.045C20.8766 19.3078 20.8248 19.5681 20.7241 19.8109C20.6235 20.0537 20.476 20.2743 20.29 20.46C20.1043 20.646 19.8837 20.7935 19.6409 20.8941C19.3981 20.9948 19.1378 21.0466 18.875 21.0466C18.6122 21.0466 18.3519 20.9948 18.1091 20.8941C17.8663 20.7935 17.6457 20.646 17.46 20.46L17.4 20.4C17.1643 20.1695 16.865 20.0148 16.5406 19.956C16.2162 19.8972 15.8816 19.9369 15.58 20.07C15.2842 20.1968 15.032 20.4072 14.8543 20.6755C14.6766 20.9438 14.5813 21.2582 14.58 21.58V21.75C14.58 22.2804 14.3693 22.7891 13.9942 23.1642C13.6191 23.5393 13.1104 23.75 12.58 23.75C12.0496 23.75 11.5409 23.5393 11.1658 23.1642C10.7907 22.7891 10.58 22.2804 10.58 21.75V21.66C10.5723 21.329 10.4651 21.008 10.2725 20.7387C10.0799 20.4694 9.81074 20.2643 9.5 20.15C9.19838 20.0169 8.86381 19.9772 8.53941 20.036C8.21502 20.0948 7.91568 20.2495 7.68 20.48L7.62 20.54C7.43425 20.726 7.21368 20.8735 6.97088 20.9741C6.72808 21.0748 6.46783 21.1266 6.205 21.1266C5.94217 21.1266 5.68192 21.0748 5.43912 20.9741C5.19632 20.8735 4.97575 20.726 4.79 20.54C4.60405 20.3543 4.45653 20.1337 4.35588 19.8909C4.25523 19.6481 4.20343 19.3878 4.20343 19.125C4.20343 18.8622 4.25523 18.6019 4.35588 18.3591C4.45653 18.1163 4.60405 17.8957 4.79 17.71L4.85 17.65C5.08054 17.4143 5.23519 17.115 5.294 16.7906C5.35282 16.4662 5.31312 16.1316 5.18 15.83C5.05324 15.5342 4.84276 15.282 4.57447 15.1043C4.30618 14.9266 3.99179 14.8313 3.67 14.83H3.5C2.96957 14.83 2.46086 14.6193 2.08579 14.2442C1.71071 13.8691 1.5 13.3604 1.5 12.83C1.5 12.2996 1.71071 11.7909 2.08579 11.4158C2.46086 11.0407 2.96957 10.83 3.5 10.83H3.59C3.92099 10.8223 4.242 10.7151 4.5113 10.5225C4.78059 10.3299 4.98572 10.0607 5.1 9.75C5.23312 9.44838 5.27282 9.11381 5.214 8.78941C5.15519 8.46502 5.00054 8.16568 4.77 7.93L4.71 7.87C4.52405 7.68425 4.37653 7.46368 4.27588 7.22088C4.17523 6.97808 4.12343 6.71783 4.12343 6.455C4.12343 6.19217 4.17523 5.93192 4.27588 5.68912C4.37653 5.44632 4.52405 5.22575 4.71 5.04C4.89575 4.85405 5.11632 4.70653 5.35912 4.60588C5.60192 4.50523 5.86217 4.45343 6.125 4.45343C6.38783 4.45343 6.64808 4.50523 6.89088 4.60588C7.13368 4.70653 7.35425 4.85405 7.54 5.04L7.6 5.1C7.83568 5.33054 8.13502 5.48519 8.45941 5.544C8.78381 5.60282 9.11838 5.56312 9.42 5.43H9.5C9.79577 5.30324 10.048 5.09276 10.2257 4.82447C10.4034 4.55618 10.4987 4.24179 10.5 3.92V3.75C10.5 3.21957 10.7107 2.71086 11.0858 2.33579C11.4609 1.96071 11.9696 1.75 12.5 1.75C13.0304 1.75 13.5391 1.96071 13.9142 2.33579C14.2893 2.71086 14.5 3.21957 14.5 3.75V3.84C14.5013 4.16179 14.5966 4.47618 14.7743 4.74447C14.952 5.01276 15.2042 5.22324 15.5 5.35C15.8016 5.48312 16.1362 5.52282 16.4606 5.464C16.785 5.40519 17.0843 5.25054 17.32 5.02L17.38 4.96C17.5657 4.77405 17.7863 4.62653 18.0291 4.52588C18.2719 4.42523 18.5322 4.37343 18.795 4.37343C19.0578 4.37343 19.3181 4.42523 19.5609 4.52588C19.8037 4.62653 20.0243 4.77405 20.21 4.96C20.396 5.14575 20.5435 5.36632 20.6441 5.60912C20.7448 5.85192 20.7966 6.11217 20.7966 6.375C20.7966 6.63783 20.7448 6.89808 20.6441 7.14088C20.5435 7.38368 20.396 7.60425 20.21 7.79L20.15 7.85C19.9195 8.08568 19.7648 8.38502 19.706 8.70941C19.6472 9.03381 19.6869 9.36838 19.82 9.67V9.75C19.9468 10.0458 20.1572 10.298 20.4255 10.4757C20.6938 10.6534 21.0082 10.7487 21.33 10.75H21.5C22.0304 10.75 22.5391 10.9607 22.9142 11.3358C23.2893 11.7109 23.5 12.2196 23.5 12.75C23.5 13.2804 23.2893 13.7891 22.9142 14.1642C22.5391 14.5393 22.0304 14.75 21.5 14.75H21.41C21.0882 14.7513 20.7738 14.8466 20.5055 15.0243C20.2372 15.202 20.0268 15.4542 19.9 15.75V15.75Z" stroke="#F9F9F9" stroke-width="2" stroke-linecap="round" stroke-linejoin="round"/>
</g>
<defs>
<clipPath id="clip0">
<rect width="24" height="24" fill="white" transform="translate(0.5 0.75)"/>
</clipPath>
</defs>
</svg>
